/* XPM */
static char *result[] = {
/* columns rows colors chars-per-pixel */
"64 64 81 1 ",
"  c #0C0000",
". c #0E0000",
"X c #0F0000",
"o c #130000",
"O c #120101",
"+ c #140000",
"@ c #140101",
"# c #180101",
"$ c #210202",
"% c #220202",
"& c #230202",
"* c #240202",
"= c #240303",
"- c #350404",
"; c #3A0505",
": c #410606",
"> c #430606",
", c #440606",
"< c #460606",
"1 c #510808",
"2 c #530808",
"3 c #550808",
"4 c #610909",
"5 c #620909",
"6 c #640A0A",
"7 c #680A0A",
"8 c #6C0B0B",
"9 c #6D0B0B",
"0 c #700B0B",
"q c #780C0C",
"w c #870D0D",
"e c #890E0E",
"r c #8A0E0E",
"t c #8B0E0E",
"y c #8C0E0E",
"u c #9A1010",
"i c #9C1010",
"p c #9D1010",
"a c #A11010",
"s c #A61111",
"d c #AC1212",
"f c #AD1212",
"g c #AE1212",
"h c #B01212",
"j c #B51313",
"k c #B71212",
"l c #B61313",
"z c #B71313",
"x c #B81313",
"c c #BA1313",
"v c #BB1414",
"b c #BC1414",
"n c #BD1414",
"m c #C31414",
"M c #C81515",
"N c #CA1515",
"B c #CD1515",
"V c #D11515",
"C c #D01616",
"Z c #D11616",
"A c #D21616",
"S c #D61616",
"D c #DF1717",
"F c #E11717",
"G c #E31818",
"H c #E41818",
"J c #E71818",
"K c #E81818",
"L c #E91818",
"P c #E91919",
"I c #EA1818",
"U c #EA1919",
"Y c #EB1919",
"T c #EC1919",
"R c #ED1919",
"E c #EE1919",
"W c #EF1919",
"Q c #EF1A1A",
"! c #F01919",
"~ c #F01A1A",
"^ c None",
/* pixels */
"^^^^^^^^^^^^^^^^^^^^^^^^^^^^^^^^^^^^^^^^^^^^^^^^^^^^^^^^^^^^^^^^",
"^^^^^^^^^^^^^^^^^^^^^^^^^^^^^^^^^^^^^^^^^^^^^^^^^^^^^^^^^^^^^^^^",
"^^^^^^^^^^^^^^^^^^^^^^^^^^^^^^^^^^^^^^^^^^^^^^^^^^^^^^^^^^^^^^^^",
"^^^^^^^^^^^^^^^^^^^^^^^^^^^^^^^^^^^^^^^^^^^^^^^^^^^^^^^^^^^^^^^^",
"^^^^^^^^^^^^^^^^^^^^^^^^^^^^^^^^^^^^^^^^^^^^^^^^^^^^^^^^^^^^^^^^",
"^^^^^^^^^^^^^^^^^^^^^^^^^^^^^^^^^^^^^^^^^^^^^^^^^^^^^^^^^^^^^^^^",
"^^^^^^^^^^^^^^^^^^^^^^^^^^^^^^^^^^^^^^^^^^^^^^^^^^^^^^^^^^^^^^^^",
"^^^^^^^^^^^^^^^^^^^^^^^^^^^^^^^^^^^^^^^^^^^^^^^^^^^^^^^^^^^^^^^^",
"^^^^^^^^^^^^^^^^^^^^^^^^^^^^^^^^^^^^^^^^^^^^^^^^^^^^^^^^^^^^^^^^",
"^^^^^^^^^^^^^^^^^^^^^^^^^^^^^^^^^^^^^^^^^^^^^^^^^^^^^^^^^^^^^^^^",
"^^^^^^^^^^^^^^^^^^^^^^^^^^^^^^^^^^^^^^^^^^^^^^^^^^^^^^^^^^^^^^^^",
"^^^^^^^^^^^^^^^^^^^^^^^^^^^^^^^^^^^^^^^^^^^^^^^^^^^^^^^^^^^^^^^^",
"^^^^^^^^^^^^^^^^^^^^^^^^^^^^^^^^^^^^^^^^^^^^^^^^^^^^^^^^^^^^^^^^",
"^^^^^^^^^^^^^^^^^^^^^^^^^^^^^^^^^^^^^^^^^^^^^^^^^^^^^^^^^^^^^^^^",
"^^^^^^^^^^^^^^^^^^^^^^^^^^^^^^^^^^^^^^^^^^^^^^^^^^^^^^^^^^^^^^^^",
"^^^^^^^^^^^^^^^^^^^^^^^^^^^^^^^^^^^^^^^^^^^^^^^^^^^^^^^^^^^^^^^^",
"^^^^^^^^^^^^^^^^^^^^^^^^^^^^^^^^^^^^^^^^^^^^^^^^^^^^^^^^^^^^^^^^",
"^^^^^^^^^^^^^^^^^^^^^^^^^^^^^^^^^^^^^^^^^^^^^^^^^^^^^^^^^^^^^^^^",
"^^^^^^^^^^^^^^^^^^^^^^^^^^^^^^^^^^^^^^^^^^^^^^^^^^^^^^^^^^^^^^^^",
"^^^^^^^^^^^^^^^^^^^^^^^^^^^^^^^^^^^^^^^^^^^^^^^^^^^^^^^^^^^^^^^^",
"^^^^^^^^^^^^^^^^^^^^^^^^^^^^^^^^^^^^^^^^^^^^^^^^^^^^^^^^^^^^^^^^",
"^^^^^^^^^^^^........^^^^^^^^^^^^^^^^^^^^^^^^........^^^^^^^^^^^^",
"^^^^^^^^^^^XXXXXXXXXX^^^^^^^^^^^^^^^^^^^^^^XXXXXXXXXX^^^^^^^^^^^",
"^^^^^^^^^^o6eeeeeeee6o^^^^^^^^^^^^^^^^^^^^o6eeeeeeee6o^^^^^^^^^^",
"^^^^^^^^^X@tKILLLLIKt@X^^^^^^^^^^^^^^^^^^X@tKILLLLIKt@X^^^^^^^^^",
"^^^^^^^^^50lW~~~~~~Wl05^^^^^^^^^^^^^^^^^^50lW~~~~~~Wl05^^^^^^^^^",
"^^^^^^^.&kLRWWQQQQWWRIz=X^^XXXXXXXXXX^^X=zIRWWQQQQWWRLk&.^^^^^^^",
"^^^^^^^.%cW~W~~~~~~W~WN51^^<22222222<^^15NW~W~~~~~~W~Wc%.^^^^^^^",
"^^^^^^^.%cW~~~~~~~~~QWTHC:OwFGGGGGGFwO:CHTWQ~~~~~~~~~Wc%.^^^^^^^",
"^^^^^^^.%cW~~~~~~~~~QQ~!D4;pE~~~~~~Ep;4D!~QQ~~~~~~~~~Wc%.^^^^^^^",
"^^^^^^^.%cW~~~~~~~~~~~~WJduME~~~~~~EMudJW~~~~~~~~~~~~Wc%.^^^^^^^",
"^^^^^^^.%cW~~~~~~~~~~~~WLnhAW~~~~~~WAhnLW~~~~~~~~~~~~Wc%.^^^^^^^",
"^^^^^^^.%cW~~~~~~~~~~~~WLvfVW~~~~~~WVfvLW~~~~~~~~~~~~Wc%.^^^^^^^",
"^^^^^^^.%cW~~~~~~~~~~~~WLvfZW~~~~~~WZfvLW~~~~~~~~~~~~Wc%.^^^^^^^",
"^^^^^^^.%cW~~~~~~~~~~~~WLbgAW~~~~~~WAgbLW~~~~~~~~~~~~Wc%.^^^^^^^",
"^^^^^^^.%cW~~~~~~~~~~~~WKjsBW~~~~~~WBsjKW~~~~~~~~~~~~Wc%.^^^^^^^",
"^^^^^^^.%cW~~~~~~~~~~W~WD7>aE~~~~~~Ea>7DW~W~~~~~~~~~~Wc%.^^^^^^^",
"^^^^^^^.%cW~~~~~~~~~WWEUS,@rKUPPPPUKr@,SUEWW~~~~~~~~~Wc%.^^^^^^^",
"^^^^^^^.%cW~WW~~~~WW~!Vq7-^3999999993^-7qV!~WW~~~~WW~Wc%.^^^^^^^",
"^^^^^^^.&zIRWWQQQQWWRIx*X^^XXXXXXXXXX^^X*xIRWWQQQQWWRIz&.^^^^^^^",
"^^^^^^^^$qymW~~~~~~Wmyq$^^^^........^^^^$qymW~~~~~~Wmyq$^^^^^^^^",
"^^^^^^^^^.+tYERRRREYt+.^^^^^^^^^^^^^^^^^^.+tYERRRREYt+.^^^^^^^^^",
"^^^^^^^^^^o8iiiiiiii8o^^^^^^^^^^^^^^^^^^^^o8iiiiiiii8o^^^^^^^^^^",
"^^^^^^^^^^^##########^^^^^^^^^^^^^^^^^^^^^^##########^^^^^^^^^^^",
"^^^^^^^^^^^^        ^^^^^^^^^^^^^^^^^^^^^^^^        ^^^^^^^^^^^^",
"^^^^^^^^^^^^^^^^^^^^^^^^^^^^^^^^^^^^^^^^^^^^^^^^^^^^^^^^^^^^^^^^",
"^^^^^^^^^^^^^^^^^^^^^^^^^^^^^^^^^^^^^^^^^^^^^^^^^^^^^^^^^^^^^^^^",
"^^^^^^^^^^^^^^^^^^^^^^^^^^^^^^^^^^^^^^^^^^^^^^^^^^^^^^^^^^^^^^^^",
"^^^^^^^^^^^^^^^^^^^^^^^^^^^^^^^^^^^^^^^^^^^^^^^^^^^^^^^^^^^^^^^^",
"^^^^^^^^^^^^^^^^^^^^^^^^^^^^^^^^^^^^^^^^^^^^^^^^^^^^^^^^^^^^^^^^",
"^^^^^^^^^^^^^^^^^^^^^^^^^^^^^^^^^^^^^^^^^^^^^^^^^^^^^^^^^^^^^^^^",
"^^^^^^^^^^^^^^^^^^^^^^^^^^^^^^^^^^^^^^^^^^^^^^^^^^^^^^^^^^^^^^^^",
"^^^^^^^^^^^^^^^^^^^^^^^^^^^^^^^^^^^^^^^^^^^^^^^^^^^^^^^^^^^^^^^^",
"^^^^^^^^^^^^^^^^^^^^^^^^^^^^^^^^^^^^^^^^^^^^^^^^^^^^^^^^^^^^^^^^",
"^^^^^^^^^^^^^^^^^^^^^^^^^^^^^^^^^^^^^^^^^^^^^^^^^^^^^^^^^^^^^^^^",
"^^^^^^^^^^^^^^^^^^^^^^^^^^^^^^^^^^^^^^^^^^^^^^^^^^^^^^^^^^^^^^^^",
"^^^^^^^^^^^^^^^^^^^^^^^^^^^^^^^^^^^^^^^^^^^^^^^^^^^^^^^^^^^^^^^^",
"^^^^^^^^^^^^^^^^^^^^^^^^^^^^^^^^^^^^^^^^^^^^^^^^^^^^^^^^^^^^^^^^",
"^^^^^^^^^^^^^^^^^^^^^^^^^^^^^^^^^^^^^^^^^^^^^^^^^^^^^^^^^^^^^^^^",
"^^^^^^^^^^^^^^^^^^^^^^^^^^^^^^^^^^^^^^^^^^^^^^^^^^^^^^^^^^^^^^^^",
"^^^^^^^^^^^^^^^^^^^^^^^^^^^^^^^^^^^^^^^^^^^^^^^^^^^^^^^^^^^^^^^^",
"^^^^^^^^^^^^^^^^^^^^^^^^^^^^^^^^^^^^^^^^^^^^^^^^^^^^^^^^^^^^^^^^",
"^^^^^^^^^^^^^^^^^^^^^^^^^^^^^^^^^^^^^^^^^^^^^^^^^^^^^^^^^^^^^^^^",
"^^^^^^^^^^^^^^^^^^^^^^^^^^^^^^^^^^^^^^^^^^^^^^^^^^^^^^^^^^^^^^^^"
};
