/* XPM */
static char *result[] = {
/* columns rows colors chars-per-pixel */
"64 64 159 2 ",
"   c #000000",
".  c #030B02",
"X  c #070A0A",
"o  c #0A0D0D",
"O  c #140305",
"+  c #1E0102",
"@  c #1D0508",
"#  c #021506",
"$  c #16130B",
"%  c #1B190D",
"&  c #17160A",
"*  c #0E1214",
"=  c #151A1C",
"-  c #111517",
";  c #240102",
":  c #290406",
">  c #390305",
",  c #320305",
"<  c #211C11",
"1  c #1E2E16",
"2  c #0C3C1C",
"3  c #272115",
"4  c #282417",
"5  c #312B1C",
"6  c #181E22",
"7  c #1C2225",
"8  c #1F262B",
"9  c #242C2F",
"0  c #20262A",
"q  c #393122",
"w  c #232A32",
"e  c #2A3135",
"r  c #2E353A",
"t  c #2F383D",
"y  c #30383D",
"u  c #460408",
"i  c #4A0509",
"p  c #55070C",
"a  c #5A080D",
"s  c #135328",
"d  c #215326",
"f  c #1B6935",
"g  c #1D773C",
"h  c #20793D",
"j  c #4B412D",
"k  c #5B4F38",
"l  c #67593F",
"z  c #2F3841",
"x  c #343C43",
"c  c #363F48",
"v  c #383F48",
"b  c #374149",
"n  c #3B444B",
"m  c #3F494E",
"M  c #384046",
"N  c #3E4850",
"B  c #3E4750",
"V  c #40494E",
"C  c #434D53",
"Z  c #465157",
"A  c #475158",
"S  c #4C575C",
"D  c #6B5D42",
"F  c #716447",
"G  c #726448",
"H  c #7E6D4F",
"J  c #7F7E55",
"K  c #4D5960",
"L  c #515D64",
"P  c #566369",
"I  c #59666C",
"U  c #5F6E75",
"Y  c #69797E",
"T  c #657479",
"R  c #9E161F",
"E  c #92141D",
"W  c #9E1620",
"Q  c #A61621",
"!  c #AB1822",
"~  c #A91722",
"^  c #BE1C27",
"/  c #C71E29",
"(  c #CB1F2A",
")  c #D3202D",
"_  c #DB222F",
"`  c #DE2330",
"'  c #E32431",
"]  c #EA2532",
"[  c #F12734",
"{  c #847453",
"}  c #887956",
"|  c #8E7C5A",
" . c #907F5B",
".. c #298B49",
"X. c #2A984E",
"o. c #28914C",
"O. c #2C9D52",
"+. c #2DA254",
"@. c #31AA5A",
"#. c #32A658",
"$. c #2CB35E",
"%. c #34B35E",
"&. c #37BB63",
"*. c #36B761",
"=. c #37C669",
"-. c #3BC769",
";. c #3CCA6B",
":. c #37C86A",
">. c #3ED371",
",. c #40D572",
"<. c #42DC75",
"1. c #45DF78",
"2. c #44E179",
"3. c #44E077",
"4. c #96845F",
"5. c #9D8B64",
"6. c #978560",
"7. c #A28E67",
"8. c #A48E68",
"9. c #A19067",
"0. c #A59169",
"q. c #A8956B",
"w. c #AD996E",
"e. c #AD9A70",
"r. c #83A868",
"t. c #6B7A82",
"y. c #7B8C94",
"u. c #75868E",
"i. c #49F282",
"p. c #81939A",
"a. c #899CA4",
"s. c #8FA4AE",
"d. c #90A5AE",
"f. c #97ADB7",
"g. c #9CB3BC",
"h. c #A0B6C1",
"j. c #A3B9C4",
"k. c #A8BFCB",
"l. c #ABC3CD",
"z. c #AFC8D3",
"x. c #B0C9D4",
"c. c #B6CEDB",
"v. c #B9D3DF",
"b. c #B7D0DC",
"n. c #BBD5E1",
"m. c #BFD9E5",
"M. c #BFDBE8",
"N. c #C0DBE7",
"B. c #C2DDE9",
"V. c #C7E3EE",
"C. c #CAE6EF",
"Z. c #CAE6F1",
"A. c #CEEAF3",
"S. c #D2EFF6",
"D. c #D5F1F6",
"F. c #D4F1F9",
"G. c #D9F7FC",
"H. c #DEFCFF",
"J. c None",
/* pixels */
"J.J.J.J.J.J.J.J.J.J.J.J.J.J.J.J.J.J.J.J.J.J.J.J.J.J.J.J.J.J.J.J.J.J.J.J.J.J.J.J.J.J.J.J.J.J.J.J.J.J.J.J.J.J.J.J.J.J.J.J.J.J.J.J.",
"J.J.J.J.J.J.J.J.J.J.J.J.J.J.J.J.J.J.J.J.J.J.J.J.J.J.J.J.J.J.J.J.J.J.J.J.J.J.J.J.J.J.J.J.J.J.J.J.J.J.J.J.J.J.J.J.J.J.J.J.J.J.J.J.",
"J.J.J.J.J.J.J.J.J.J.J.J.J.J.J.J.J.J.J.J.J.J.J.J.J.J.J.J.J.J.J.J.J.J.J.J.J.J.J.J.J.J.J.J.J.J.J.J.J.J.J.J.J.J.J.J.J.J.J.J.J.J.J.J.",
"J.J.J.J.J.J.J.J.J.J.J.J.J.J.J.J.J.J.J.J.J.J.J.J.J.J.J.J.J.J.J.J.J.J.J.J.J.J.J.J.J.J.J.J.J.J.J.J.J.J.J.J.J.J.J.J.J.J.J.J.J.J.J.J.",
"J.J.J.J.J.J.J.J.J.J.J.J.J.J.J.J.J.J.J.J.J.J.J.J.J.J.J.J.J.J.J.J.J.J.J.J.J.J.J.J.J.J.J.J.J.J.J.J.J.J.J.J.J.J.J.J.J.J.J.J.J.J.J.J.",
"J.J.J.J.J.J.J.J.J.J.J.J.J.J.J.J.J.J.J.J.J.J.J.J.J.J.J.J.J.J.J.J.J.J.J.J.J.J.J.J.J.J.J.J.J.J.J.J.J.J.J.J.J.J.J.J.J.J.J.J.J.J.J.J.",
"J.J.J.J.J.J.J.J.J.J.J.J.J.J.J.; ; ; ; ; ; ; ; ; ; ; ; ; ; ; ; ; ; ; ; ; ; ; ; ; ; ; ; ; : ; ; ; ; J.J.J.J.J.J.J.J.J.J.J.J.J.J.J.",
"J.J.J.J.J.J.J.J.J.J.J.J.J.J.i R ! Q Q Q Q Q ~ ~ Q Q Q Q Q Q Q Q Q Q Q Q ~ Q Q Q Q Q Q Q Q Q Q ! R i J.J.J.J.J.J.J.J.J.J.J.J.J.J.",
"J.J.J.J.J.J.J.J.J.J.J.J.J.  a _ [ ] ' ] ] ] ] ] ] ] ] ' ] ] ] ] ] ] ] ' ] ] ] ] ] ] ' ] ] ' ' [ _ a   J.J.J.J.J.J.J.J.J.J.J.J.J.",
"J.J.J.J.J.J.J.J.J.J.J.J.> R ^ ` ' ' ' ' ' ] ' ' ' ' ' ' ' ' ' ' ' ' ' ] ' ' ' ' ' ' ' ' ] ' ' ] ` ^ R > J.J.J.J.J.J.J.J.J.J.J.J.",
"J.J.J.J.J.J.J.J.J.J.J.; p ) [ ' _ ' ' ' ' ' ' ` ' ' ' ' ' ' ' ' ' ` ' ' ' ' ` ' ' ` ] ' ' ` ' ` ` [ ) p ; J.J.J.J.J.J.J.J.J.J.J.",
"J.J.J.J.J.J.J.J.J.J.; Q / _ ' ' ' ' ' ' ' ' ' ' ' ' ' ' ' ' ' ' ' ' ' ' ' ' ' ' ' ' ' ' ' ' ' ' ' ] _ / Q ; J.J.J.J.J.J.J.J.J.J.",
"J.J.J.J.J.J.J.J.J.> p / [ ' ' ' ' ' ' ' ' ' ' ' ' ' ' ' ' ' ' ' ' ' ' ' ' ' ' ' ' ' ' ' ' ' ' ' ' ` ' [ / p > J.J.J.J.J.J.J.J.J.",
"J.J.J.J.J.J.J.J.  R ) _ ' ' ' ' ' ' ' ' ' ' ' ' ' ' ' ' ' ' ' ' ' ' ' ' ' ' ' ' ' ' ' ' ' ' ' ' ' ' ' ' _ ( R   J.J.J.J.J.J.J.J.",
"J.J.J.J.J.J.J.i a / [ ' ` ' ' ' ' ' ' ' ' ' ' ' ' ' ' ' ' ' ' ' ' ' ' ' ' ' ' ' ' ' ' ' ' ' ' ' ' ' ' ` ] [ ^ a i J.J.J.J.J.J.J.",
"J.J.J.J.J.J.; W ) _ ` ' ' ' ' ' ' ` ' ' ' ' ' ' ' ' ' ' ' ' ' ' ' ' ' ' ' ' ` ' ' ' ' ' ' ' ` ' ' ' ' ' ' ' _ _ R ; J.J.J.J.J.J.",
"J.J.J.J.J.J.; ! ] ] ' ' ' ' ' ' ' ' ' ' ' ' ' ' ' ' ' ' ' ' ' ' ' ' ' ' ' ' ' ' ' ' ' ' ' ' ' ' ' ' ' ' ' ' ' [ ~ ; J.J.J.J.J.J.",
"J.J.J.J.J.J.; ! ] ] ] ] ] ] ] ] ] ] ] ] ] ] ] ] ] ] ] ] ] ] ] ] ] ] ] ] ] ] ] ] ] ] ] ] ] ] ] ] ] ] ] ] ] ] [ ] Q ; J.J.J.J.J.J.",
"J.J.J.J.J.J.; W ( ( / ( ( / ( / ( / ( / ( ( ( ( ( ( ( / ( / ( / ( ( ( ( ( ( ( ( ( ( ( ( ( ( ( ( ( ( ( ( ( ( ( ( E + J.J.J.J.J.J.",
"J.J.J.J.J.J.@ : i i u u i u i u i u i u u u u i u u u u i u i u u u u u u u u u u u u u u u u u u u u u u u u i ,   J.J.J.J.J.J.",
"J.J.J.J.J.J.@                                                                                                       J.J.J.J.J.J.",
"J.J.J.J.J.J.J.J.: J.J.J.J.J.J.J.J.J.J.J.J.J.J.J.J.J.J.J.J.J.J.J.J.J.J.J.J.J.J.J.J.J.J.J.J.J.J.J.J.J.J.J.J.J.J.+ J.J.J.J.J.J.J.J.",
"J.J.J.J.J.J.J.J.O J.J.J.J.J.J.J.J.J.J.J.J.J.J.J.J.J.J.J.J.J.J.J.J.J.J.J.J.J.J.J.J.J.J.J.J.J.J.J.J.J.J.J.J.J.J.  J.J.J.J.J.J.J.J.",
"J.J.J.J.J.J.J.J.O J.J.J.J.J.J.J.J.J.J.J.J.J.J.J.J.J.J.J.J.J.J.J.J.J.J.J.J.J.J.J.J.J.J.J.J.J.J.J.J.J.J.J.J.J.J.  J.J.J.J.J.J.J.J.",
"J.J.J.J.J.J.J.J.O J.J.J.J.J.                        J.J.J.J.J.J.J.J.J.J.J.J.J.J.                        J.J.J.  J.J.J.J.J.J.J.J.",
"J.J.J.J.J.J.J.J.O J.J.J.J.  * y b b t * 7 v M b 9 o J.J.J.J.J.J.J.J.J.J.J.J.J.J.o e b b v = o y b v t o   J.J.  J.J.J.J.J.J.J.J.",
"J.J.J.J.J.J.J.J.O J.J.J.J.  m h.x.x.f.e T l.z.z.y.6 J.J.J.J.J.J.J.J.J.J.J.J.J.J.9 a.z.x.l.L e g.x.x.f.x   J.J.  J.J.J.J.J.J.J.J.",
"J.J.J.J.J.J.J.J.O J.J.J.J.  L Z.H.H.B.x p.G.H.H.g.w J.J.J.J.J.J.J.J.J.J.J.J.J.J.y l.H.H.D.Y v V.H.H.m.C   J.J.  J.J.J.J.J.J.J.J.",
"J.J.J.J.J.J.J.J.O J.J.J.J.  L Z.H.H.B.x y.G.G.H.g.w J.J.J.J.J.J.J.J.J.J.J.J.J.J.y l.H.H.F.Y x V.H.H.N.C   J.J.  J.J.J.J.J.J.J.J.",
"J.J.J.J.J.J.J.J.O J.J.J.J.  K m.F.F.v.z y.S.S.D.f.8 J.J.J.J.J.J.J.J.J.J.J.J.J.J.r j.S.S.C.T y m.F.F.b.V   J.J.  J.J.J.J.J.J.J.J.",
"J.J.J.J.J.J.J.J.O J.J.J.J.  7 L I I S * t P I I n X J.J.J.J.J.J.J.J.J.J.J.J.J.J.* C I I P 9 - L I I S =   J.J.  J.J.J.J.J.J.J.J.",
"J.J.J.J.J.J.J.J.O J.J.J.J.  = N A A m o 9 Z Z A t X J.J.J.J.J.J.J.J.J.J.J.J.J.J.o x Z Z C 8 o V A A n *   J.J.  J.J.J.J.J.J.J.J.",
"J.J.J.J.J.J.J.J.O J.J.J.J.  S b.A.Z.x.r u.C.Z.C.s.8 J.J.J.J.J.J.J.J.J.J.J.J.J.J.e g.Z.A.B.U t c.Z.Z.x.n   J.J.  J.J.J.J.J.J.J.J.",
"J.J.J.J.J.J.J.J.O J.J.J.J.  L Z.H.H.M.x y.G.G.H.g.w J.J.J.J.J.J.J.J.J.J.J.J.J.J.y l.H.H.F.Y v Z.H.H.B.C   J.J.  J.J.J.J.J.J.J.J.",
"J.J.J.J.J.J.J.J.O J.J.J.J.  L Z.H.H.B.x p.H.H.H.g.w J.J.J.J.J.J.J.J.J.J.J.J.J.J.x l.H.H.F.Y v V.H.H.B.C   J.J.  J.J.J.J.J.J.J.J.",
"J.J.J.J.J.J.J.J.O J.J.J.J.  C l.n.n.j.e t.b.v.n.p.7 J.J.J.J.J.J.J.J.J.J.J.J.J.J.9 d.v.n.c.P e l.n.n.h.v   J.J.  J.J.J.J.J.J.J.J.",
"J.J.J.J.J.J.J.J.O J.J.J.J.  - M N N v o 0 n N N e X J.J.J.J.J.J.J.J.J.J.J.J.J.J.o t n m n 6 o v N N x *   J.J.  J.J.J.J.J.J.J.J.",
"J.J.J.J.J.J.J.J.O J.J.J.J.J.                        J.J.J.J.J.J.J.J.J.J.J.J.J.J.                        J.J.J.  J.J.J.J.J.J.J.J.",
"J.J.J.J.J.J.J.J.O J.J.J.J.J.J.J.J.J.J.J.J.J.J.J.J.J.J.J.J.J.J.J.J.J.J.J.J.J.J.J.J.J.J.J.J.J.J.J.J.J.J.J.J.J.J.  J.J.J.J.J.J.J.J.",
"J.J.J.J.J.J.J.J.O J.J.J.J.J.J.J.J.J.J.J.J.J.J.J.J.J.J.J.J.  J.J.J.J.  J.J.J.J.J.J.J.J.J.J.J.J.J.J.J.J.J.J.J.J.  J.J.J.J.J.J.J.J.",
"J.J.J.J.J.J.J.J.O J.J.J.J.J.J.J.J.J.J.J.J.J.J.J.J.J.J.J.< < < < < % < < J.J.J.J.J.J.J.J.J.J.J.J.J.J.J.J.J.J.J.  J.J.J.J.J.J.J.J.",
"J.J.J.J.J.J.J.J.O J.J.J.J.J.J.J.J.J.J.J.J.J.J.J.J.J.J.% G } H { { { { G % J.J.J.J.J.J.J.J.J.J.J.J.J.J.J.J.J.J.  J.J.J.J.J.J.J.J.",
"J.J.J.J.J.J.J.J.O J.J.J.J.J.J.J.J.J.J.J.J.J.J.J.J.J.$ q  .w.q.q.q.q.w. .q $ J.J.J.J.J.J.J.J.J.J.J.J.J.J.J.J.J.  J.J.J.J.J.J.J.J.",
"J.J.J.J.J.J.J.J.O J.J.J.J.J.J.J.J.J.J.J.J.J.J.J.J.3 G | 5.0.7.8.8.8.0.5. .G 4 J.J.J.J.J.J.J.J.J.J.J.J.J.J.J.J.  J.J.J.J.J.J.J.J.",
"J.J.J.J.J.J.J.J.O J.J.J.J.J.J.J.J.J.J.J.J.J.J.J.  3 } e.9.7.7.7.7.7.7.0.w.} 4   J.J.J.J.J.J.J.J.J.J.J.J.J.J.J.  J.J.J.J.J.J.J.J.",
"J.J.J.J.J.J.J.J.O J.J.J.J.J.J.J.J.J.J.J.J.J.J.J.  3 { q.0.7.0.7.0.9.9.8.q.{ 3   J.J.J.J.J.J.J.J.J.J.J.J.J.J.J.  J.J.J.J.J.J.J.J.",
"J.J.J.J.J.J.J.J.O J.J.J.J.J.J.J.J.J.J.J.J.J.J.J.  3 { q.9.7.9.0.7.0.7.7.q.{ 3   J.J.J.J.J.J.J.J.J.J.J.J.J.J.J.  J.J.J.J.J.J.J.J.",
"J.J.J.J.J.J.J.J.O J.J.J.J.J.J.J.J.J.J.J.J.J.J.J.  3 { q.0.7.0.7.9.0.0.0.q.{ 3   J.J.J.J.J.J.J.J.J.J.J.J.J.J.J.  J.J.J.J.J.J.J.J.",
"J.J.J.J.J.J.J.J.O J.J.J.J.J.J.J.J.J.J.J.J.J.J.J.  3 { q.9.7.0.0.0.5.4.5.q.} 3   J.J.J.J.J.J.J.J.J.J.J.J.J.J.J.  J.J.J.J.J.J.J.J.",
"J.J.J.J.J.J.J.J.O J.J.J.J.J.J.J.J.J.J.J.J.J.J.J.  3 { q.0.7.9.7.q.4.5 k q.} %   J.J.J.J.J.J.J.J.J.J.J.J.J.J.J.  J.J.J.J.J.J.J.J.",
"J.J.J.J.J.J.J.J.O J.J.J.J.J.J.J.J.J.J.J.J.J.J.J.  3 { q.0.9.9.9.0.6.j D q.{ %   J.J.J.J.J.J.J.J.J.J.J.J.J.J.J.  J.J.J.J.J.J.J.J.",
"J.J.J.J.J.J.J.J.O J.J.J.J.J.J.J.J.J.J.J.J.J.J.J.  3 { q.9.9.9.9.9.7.7.9.q.{ 4   J.J.J.J.J.J.J.J.J.J.J.J.J.J.J.# J.J.J.J.J.J.J.J.",
"J.J.J.J.J.J.J.J.O J.J.J.J.J.J.J.J.J.J.J.J.J.J.J.  4 { q.9.9.0.9.7.9.0.0.q.{ 3   J.J.J.J.J.J.J.J.J.J.J.J.J.J.J.# J.J.J.J.J.J.J.J.",
"J.J.J.J.J.J.J.J.$ J.J.J.J.J.J.J.J.J.J.J.J.J.J.J.. 4 } w.8.8.0.0.q.q.8.8.w.} 4 J.J.J.J.J.J.J.J.J.J.J.J.J.J.J.J.# J.J.J.J.J.J.J.J.",
"J.J.J.J.J.J.J.J.& ..J.J.J.J.J.J.J.J.J.J.J.J.J.J.g % l { r.r.4.H G 4.r.r.{ l % g J.J.J.J.J.J.J.J.J.J.J.J.J.J.h O.J.J.J.J.J.J.J.J.",
"J.J.J.J.J.J.J.J.. #.2.h . ;.>.s     f <.&.  o.2.X.  O 1 @.:.s + O d :.@.1 O   X.2.o.    2 -.,.s     f <.&.  o.2.J.J.J.J.J.J.J.J.",
"J.J.J.J.J.J.<.*.O.-.,.%.O.;.>.@.O.O.@.>.;.O.*.,.&.O.O.+.-.>.@.O.O.@.>.-.O.O.O.*.,.*.O.O.+.;.>.#.O.O.@.>.-.O.*.<.,.,.J.J.J.J.J.J.",
"J.J.J.J.J.J.i.2.1.<.,.1.2.<.>.1.2.2.3.<.<.3.<.<.<.<.1.1.<.<.1.2.2.3.<.<.1.1.2.<.<.<.2.2.2.<.<.2.3.2.2.<.<.3.1.>.1.i.J.J.J.J.J.J.",
"J.J.J.J.J.J.J.J.J.J.J.J.J.J.J.J.J.J.J.J.J.J.J.J.J.J.J.J.J.J.J.J.J.J.J.J.J.J.J.J.J.J.J.J.J.J.J.J.J.J.J.J.J.J.J.J.J.J.J.J.J.J.J.J.",
"J.J.J.J.J.J.J.J.J.J.J.J.J.J.J.J.J.J.J.J.J.J.J.J.J.J.J.J.J.J.J.J.J.J.J.J.J.J.J.J.J.J.J.J.J.J.J.J.J.J.J.J.J.J.J.J.J.J.J.J.J.J.J.J.",
"J.J.J.J.J.J.J.J.J.J.J.J.J.J.J.J.J.J.J.J.J.J.J.J.J.J.J.J.J.J.J.J.J.J.J.J.J.J.J.J.J.J.J.J.J.J.J.J.J.J.J.J.J.J.J.J.J.J.J.J.J.J.J.J.",
"J.J.J.J.J.J.J.J.J.J.J.J.J.J.J.J.J.J.J.J.J.J.J.J.J.J.J.J.J.J.J.J.J.J.J.J.J.J.J.J.J.J.J.J.J.J.J.J.J.J.J.J.J.J.J.J.J.J.J.J.J.J.J.J.",
"J.J.J.J.J.J.J.J.J.J.J.J.J.J.J.J.J.J.J.J.J.J.J.J.J.J.J.J.J.J.J.J.J.J.J.J.J.J.J.J.J.J.J.J.J.J.J.J.J.J.J.J.J.J.J.J.J.J.J.J.J.J.J.J.",
"J.J.J.J.J.J.J.J.J.J.J.J.J.J.J.J.J.J.J.J.J.J.J.J.J.J.J.J.J.J.J.J.J.J.J.J.J.J.J.J.J.J.J.J.J.J.J.J.J.J.J.J.J.J.J.J.J.J.J.J.J.J.J.J."
};
