/* XPM */
static char *result[] = {
/* columns rows colors chars-per-pixel */
"64 64 59 1 ",
"  c #D5ADA5",
". c #D8ADA5",
"X c #D9B1A6",
"o c #DCB6AD",
"O c #DEB7B2",
"+ c #DEBAB1",
"@ c #E0B4B1",
"# c #E2BDB4",
"$ c #EDBCB7",
"% c #E3BEBC",
"& c #EEBEB9",
"* c #F0BEB7",
"= c #F1BFB8",
"- c #DBC0B9",
"; c #EBC0B7",
": c #E5C2BC",
"> c #EDC4BD",
", c #EEC9BE",
"< c #F4C5BE",
"1 c #F8C6BF",
"2 c #F4C9BF",
"3 c #F8C9BE",
"4 c #EDC6C2",
"5 c #E4CCC5",
"6 c #EDCBC4",
"7 c #ECCCC9",
"8 c #F5C6C1",
"9 c #F9C6C2",
"0 c #F5CAC3",
"q c #F9CAC4",
"w c #F1C7C8",
"e c #F4CDC9",
"r c #FACDC9",
"t c #EAD0C6",
"y c #ECD1CB",
"u c #F5D0C7",
"i c #F8D0C6",
"p c #F5D2CA",
"a c #FAD3CC",
"s c #F5DACF",
"d c #FBD8CD",
"f c #EFD6D2",
"g c #EEDBD3",
"h c #EFDDDB",
"j c #F3D6D1",
"k c #FBD6D1",
"l c #F4DAD4",
"z c #FDDAD4",
"x c #F3DBD8",
"c c #FCDED9",
"v c #FEE1D7",
"b c #F4E1D9",
"n c #FFE4DD",
"m c #FEE9DE",
"M c #F6E7E2",
"N c #FEE6E2",
"B c #FFEBE4",
"V c #FFEDE9",
"C c #FFF0E6",
/* pixels */
"qrqqqrwrqqqrr9wq00weuuiiiqru7ybCldppuueeeure0quaeuirerqqrareawez",
"0000909w80wq9008848660,2e20u7yxBae0u0u8886<28880800800qr0rweeeek",
"080008800008888884482000080e7yxNy066060668,,4288,00288880w08e44j",
"8808w8880900w88800w80600r0qe77hVe000000808w08w800,0600088w84e47k",
"80q00000900008w8wwww6888q0rr77hNu000ee00e0e000u0u60t00e08ew6ewez",
"9ww990q908888880rrrwuier90ww77xNu0080e0860006006u0u20000we68657z",
"0089080w0880880rkrrauuirr09w77hNew880868880eu606tt0uuee00u6576yz",
"088w808880000rrrrreree0rrrrr77hVe0e80e68eeuuuu0eiuiuuueueue6ueyc",
"90880808wq0r0rqrrrrreeirrqre77xBe8088800ueaeeuuuppuueieauje7ueyc",
"008w88809rrqq0qrqrreer0rrqrre5xBe00qrqeuareaauuuipuuueaueapepyyz",
"00888800rqrrrwwrrrruee0rq99we7lB0rrrraaaaiuaaueupiuireerraeepyex",
"888w800qrrrqrqqqq08q00q3990067lBueraaruurerei0euiuu00rrewaupkpez",
"88808w80rrrqq00qq00222339<800tlBuueuae0000ee8e0euiu0r0rrwreeapex",
"088w88000wqq880qq3222223819q2tlCuuuue008000008080,u0000qqrwweeez",
"0088888w880008003i2222223398,tsmyueu06e00000q8880020q09r0r08ewez",
"w008888880808000i3222,233380,tsmu06000ee00eeeqeq00020w990004eeez",
"886888068680060088222222331806pCpt0ui2000008qqqq0q2qq3q98q8600uz",
"48860608080008000020,,233q13u,smpu62ut0i00q8qq9922q33qq31r0006uz",
"88800880e88w86e000023222331365pCpiut000q8qqq99q3323q393q8q8,00ud",
"w88000w08w88008rq8202222331q0,yCpu,0u00u808q9q9qq3q3q3991r8800ez",
"88808808w908000qq0022333q39q04pBpi2u00qqqqqq9q993399q3q3qq88000z",
"w080800wqw00800qqqq3222d999qr5yBii00r28qqqqqq99qq33399999q8206ez",
"8889q88899999qq0qq3i23339q9qw4yBp000r08rqq9q9q9qq3qq39939q88e8ed",
"89809q8q88qw9qqqqqiiii33qq9906pBai00q088q8q9q9q3333999q39qq208ez",
"888w080880888888q98822qqqqqqq6jNu028q88088qqq8q233393q93q982806z",
"8888800rq0w08rerqareeqqq3q9qwejVai8rirrq000qqrqq1393393qrqr0e0,z",
",2&>,<28,<8<<42<0022,,22199845fBe2<<2222<<,222<2913339211<8<08>z",
"8w8w0w0eeww808eerre0iuq0qrrre5jVaiere0reruru0urrq3qqq9qqqqr0uu0c",
">>6,,4,4<6648686ww66262899884-ynu0060,00200,2,,,2322221<u80,,::d",
"0000e0u00eu000eeruue00ui8q8we7gBpu0u0uuu6260,,,,0i2002222>,,666v",
"++++++#:#+-++#:#:;:#-####$@O--5x-oXoooXo++###:;+XXXX......oo-;-t",
"p76:450paadaksdkcczddppiaawejfgBt,,6,5,6usdvzvzvsadaaaua0tdsdstv",
"BCBBBCBBBBBBBBBBNVBBBBBBNNNNVVMVCCBmCCBBmBBBmBBBBBBBNBBBBBBBCmmC",
"llllllllllllxlzlxkjllsssjxjjxhhMblllllglllslslsslssljjjjalysbggb",
"0y6yu660ut7e0ttewe776t66weew77fNyt6t6tt66t706667664544w45665tttg",
"e0eeeuee0w60608wrreeeuuu8rew77jNayueutu0eeeww8w88w48w<w<8664t,ts",
"0e8eqqrrerq0qrqrw9rw0u008qqrww7Naerqr0009q0w9889889999998088068d",
"88939qqqqqqqqqqqqq9q002q899qe4jNrq9qqqq999999991889999999q818,8d",
"919q9qqq93qqq3qq9rrq0qqqq99rrepBqqqqqqr9999199999991999999q1q<0d",
"11933qqqqqq3qq3q9qq92i3qqq98q5pni3qqqqqq1111191211119=99=911220d",
"8202q3qiq3qqq33qr900,2222i3206uBe3302231q139111111119999192<8,8d",
"28220q032i022i02q90uu,u22qq0u6sm002202822192q211121119=<19<,2,2d",
"8222i,i2i22ui2uurq0022220q8wt5sm0u20288228288212<2<81<<9<21<,,,d",
"26,u,i,i,u,22u220000s,s22r8006ymu022,02802828<282811<19<<32,u,,d",
"2620ii0u0i0u000eq000,2s29r9w74jN0000800888q8q8888888<998<08,,,,d",
"80000000q0000e00qqr02u22qr9wwwjNu0880888qq88q89888q199<98888u,0d",
"808eqe0e8eqer809qrrq00ii99q9ewjNe0q88q08q9999899989899991088886d",
"0808q0qqqeq8qer9r9q0qi02qqqwewjNe88q8899q8999998891999998981w80d",
"00000quq0000qqi0e8e0u,22qiq0w7fNp028q899999888<81<111188<98<988a",
"0000ququiqi000000000u,u38qr0w7fVa060q98q9988888<<1111111998<080a",
"00000qq00q00q00qu02u,,229r0e77xNp008q189899188<,2<111111898<088r",
"28000qui00eq000i0000,iu20q90w5fVpi88889q9q89928211<11111998<088k",
"0880000qq00i00q0q006,20299qwe7xNpi2888999q89882<<211112199=808wr",
"202000e0000qi0q0e0i0ui2q9rqww4fNi008q18q899888<22<211111899<908a",
"888000qqq0q0q00qq0u022q29r9qw7xVu0,8q89q891888821<1<1111998<080a",
"880808q00r0q0qeqe0202t239qqww7fNpu80q889999888<<1311111<9988980a",
"6<200qqrqiqq0qeq9r0e00iqq99rw7cVpi080qqq8898888232811111<<q8w9wk",
"<8182080q8000q0q000w220399wwwwxVuu082891999999881<111111<<9&<88r",
"88q8q88qrq0q0qqr900qi0iqq99rw7xVue82qqqq9q9908011<9119139<98808k",
"e8080re8q0q0q00qrqr0203399rew7xVu0009qqq0998098813111191999&808k",
"1888188188982188990008<999rw44xN62,88898909988<2<<<<=11<988<&88k",
"821qq8qqqqq8qqqqrrr0089999r9w7xN0688qqq99998888223<<11<1989<008k",
"8<1<8q8qqq8q8q8q008e8899999wwwxB6888q891==<<281<3311919==99<8w8k",
"$&&;&&<;<<;<<;<<<<;;;$$$$&&&%:yn:>>;<&<&$$$=;<<;<<<;****$$>$;&$0"
};
