/* XPM */
static char *result[] = {
/* columns rows colors chars-per-pixel */
"64 64 181 2 ",
"   c black",
".  c #020000",
"X  c #020202",
"o  c gray2",
"O  c #0E0000",
"+  c gray5",
"@  c gray6",
"#  c #180000",
"$  c #190000",
"%  c #1B0101",
"&  c #1C0101",
"*  c #1F0000",
"=  c #181818",
"-  c #191919",
";  c gray10",
":  c #1B1B1B",
">  c gray11",
",  c #1D1D1D",
"<  c #1C1E1E",
"1  c #1E1E1E",
"2  c #200000",
"3  c #200101",
"4  c #220000",
"5  c #230000",
"6  c #220101",
"7  c #230101",
"8  c #240000",
"9  c #250000",
"0  c #240101",
"q  c #260000",
"w  c #260101",
"e  c #270101",
"r  c #280101",
"t  c #290101",
"y  c #2A0101",
"u  c #3D0101",
"i  c #222222",
"p  c gray14",
"a  c #252525",
"s  c gray15",
"d  c #272727",
"f  c #272929",
"g  c #272A2A",
"h  c #282828",
"j  c gray16",
"k  c #282A2A",
"l  c #292A2A",
"z  c #292B2B",
"x  c #2A2A2A",
"c  c gray17",
"v  c #2C2C2C",
"b  c #2D2D2D",
"n  c #3F3F3F",
"m  c #4A0202",
"M  c #500303",
"N  c #510303",
"B  c #401C1C",
"V  c #630000",
"C  c #650000",
"Z  c #6B0202",
"A  c #6A0303",
"S  c #6C0303",
"D  c #6E0303",
"F  c #651E1E",
"G  c #402828",
"H  c gray25",
"J  c #414141",
"K  c gray26",
"L  c #434343",
"P  c #444444",
"I  c gray27",
"U  c #464646",
"Y  c gray31",
"T  c #565656",
"R  c gray34",
"E  c #585858",
"W  c #595A5A",
"Q  c #5A5A5A",
"!  c #695050",
"~  c #6B5151",
"^  c #6D6D6D",
"/  c gray45",
"(  c gray46",
")  c #747676",
"_  c #767676",
"`  c #777777",
"'  c #981313",
"]  c #991414",
"[  c #A50404",
"{  c #A60404",
"}  c #BC0707",
"|  c #BF0707",
" . c #C20101",
".. c #C50000",
"X. c #C60000",
"o. c #C00707",
"O. c #CB0202",
"+. c #C30C0C",
"@. c #D30202",
"#. c #D00606",
"$. c #D10707",
"%. c #D20707",
"&. c #D70505",
"*. c #D40707",
"=. c #D50707",
"-. c #D70707",
";. c #DA0000",
":. c #DB0000",
">. c #DA0303",
",. c #DB0303",
"<. c #DC0000",
"1. c #DD0000",
"2. c #DC0101",
"3. c #DD0101",
"4. c #DE0101",
"5. c #D80505",
"6. c #D90505",
"7. c #D90707",
"8. c #D20808",
"9. c #D50808",
"0. c #D60808",
"q. c #D70808",
"w. c #D80808",
"e. c #DA0808",
"r. c #E10202",
"t. c #E60505",
"y. c #E70505",
"u. c #E80606",
"i. c #EA0707",
"p. c #EC0707",
"a. c #EB0808",
"s. c #EC0808",
"d. c #ED0808",
"f. c #EE0808",
"g. c #EF0909",
"h. c #F00808",
"j. c #F00909",
"k. c gray58",
"l. c #959595",
"z. c gray60",
"x. c #9A9A9A",
"c. c #9B9B9B",
"v. c #A19494",
"b. c #A4A4A4",
"n. c #A5A5A5",
"m. c gray65",
"M. c gray70",
"N. c #B4B4B4",
"B. c #B4B5B5",
"V. c gray71",
"C. c #CACACA",
"Z. c #CFCACA",
"A. c gray80",
"S. c #CDCDCD",
"D. c #CECECE",
"F. c #D0D0D0",
"G. c gray82",
"H. c gray88",
"J. c #E1E1E1",
"K. c #E2E2E2",
"L. c #E4E4E4",
"P. c gray90",
"I. c #E5E6E6",
"U. c #E6E6E6",
"Y. c #E7E7E7",
"T. c gray91",
"R. c #E9E9E9",
"E. c #EAEAEA",
"W. c gray93",
"Q. c #EEEEEE",
"!. c #EFEFEF",
"~. c gray94",
"^. c gray96",
"/. c #F6F6F6",
"(. c gray97",
"). c #FBFBFB",
"_. c gray99",
"`. c #FDFDFD",
"'. c #FEFEFE",
"]. c white",
"[. c None",
/* pixels */
"[.[.[.[.[.[.[.[.[.[.[.[.[.[.[.[.[.[.[.[.[.[.[.[.[.[.[.[.[.[.[.[.[.[.[.[.[.[.[.[.[.[.[.[.[.[.[.[.[.[.[.[.[.[.[.[.[.[.[.[.[.[.[.[.",
"[.[.[.[.[.[.[.[.[.[.[.[.[.[.[.[.[.[.[.[.[.[.[.[.[.[.[.[.[.[.[.[.[.[.[.[.[.[.[.[.[.[.[.[.[.[.[.[.[.[.[.[.[.[.[.[.[.[.[.[.[.[.[.[.",
"[.[.[.[.[.[.[.[.[.[.[.[.[.[.[.[.[.[.[.[.[.[.[.[.[.[.[.[.[.[.[.[.[.[.[.[.[.[.[.[.[.[.[.[.[.[.[.[.[.[.[.[.[.[.[.[.[.[.[.[.[.[.[.[.",
"[.[.[.[.[.[.[.[.[.[.[.[.[.[.[.[.[.[.[.[.[.[.[.[.[.[.[.[.[.[.[.[.[.[.[.[.[.[.[.[.[.[.[.[.[.[.[.[.[.[.[.[.[.[.[.[.[.[.[.[.[.[.[.[.",
"[.[.[.[.[.[.[.[.[.[.[.[.[.[.[.[.[.[.[.[.[.[.[.[.[.[.[.[.[.[.[.[.[.[.[.                    [.[.[.[.[.[.[.[.[.[.[.[.[.[.[.[.[.[.[.",
"[.[.[.[.[.[.[.[.[.[.[.[.[.[.[.[.[.[.[.[.[.[.[.[.[.[.[.[.[.[.[.[.[.[.[.6 6 6 6 6 6 6 6 6 6 [.[.[.[.[.[.[.[.[.[.[.[.[.[.[.[.[.[.[.",
"[.[.[.[.[.[.[.[.[.[.[.[.[.[.[.[.[.[.[.[.[.[.[.[.[.[.[.[.[.[.[.[.    M *.*.*.*.*.*.*.*.*.*.M     [.[.[.[.[.[.[.[.[.[.[.[.[.[.[.[.",
"[.[.[.[.[.[.[.[.[.[.[.[.[.[.[.[.[.[.[.[.[.[.[.[.[.[.[.[.[.[.[.[.7 7 A p.p.p.p.p.p.p.p.p.p.A 7 7 [.[.[.[.[.[.[.[.[.[.[.[.[.[.[.[.",
"[.[.[.[.[.[.[.[.[.[.[.[.[.[.[.[.[.[.[.[.[.[.[.[.[.[.[.[.[.    & | 0.5.2.2.3.3.3.3.3.3.3.3.5.0.| &     [.[.[.[.[.[.[.[.[.[.[.[.[.",
"[.[.[.[.[.[.[.[.[.[.[.[.[.[.[.[.[.[.[.[.[.[.[.[.[.[.[.[.[.    % %.j.u.2.2.:.;.;.;.;.;.;.;.y.j.%.%     [.[.[.[.[.[.[.[.[.[.[.[.[.",
"[.[.[.[.[.[.[.[.[.[.[.[.[.[.[.[.[.[.[.[.[.[.[.[.[.[.[.[.[.    % 8.j.d.s.s.r.;.;.;.;.;.:.:.y.j.8.%     [.[.[.[.[.[.[.[.[.[.[.[.[.",
"[.[.[.[.[.[.[.[.[.[.[.[.[.[.[.[.[.[.[.[.[.[.[.[.[.[.[.[.[.    $ } q.9.9.9.>.3.3.3.3.<.:.;.&.q.} $     [.[.[.[.[.[.[.[.[.[.[.[.[.",
"[.[.[.[.[.[.[.[.[.[.[.[.[.[.[.[.[.[.[.[.[.                    . * 8 8 8 8 [ h.s.s.s.t.;.;.C 0 3 .         [.[.[.[.[.[.[.[.[.[.[.",
"[.[.[.[.[.[.[.[.[.[.[.[.[.[.[.[.[.[.[.[.[.s j j j j j j j j j j f f f f f ' 7.=.=.0.5.3.2.V 2 4 5 5 9 w w [.[.[.[.[.[.[.[.[.[.[.",
"[.[.[.[.[.[.[.[.[.[.[.[.[.[.[.[.          x.P.P.P.P.P.P.P.P.P.P.P.P.P.P.L.! 9 9 9 8 Z s.s.@.........O.0.0.N     [.[.[.[.[.[.[.[.",
"[.[.[.[.[.[.[.[.[.[.[.[.[.[.[.[.j x x x x N.].].].].].].].].].].].].].].].) f k k g F 0.0.,.4.4.<.<.r.s.s.S w e [.[.[.[.[.[.[.[.",
"[.[.[.[.[.[.[.[.[.[.[.[.[.    > S.P.P.P.P./.].].].].].].].].].].].].].].'.Q.P.P.P.I.v.q q { h.i.1.;.:.3.3.5.w.o.&     [.[.[.[.[.",
"[.[.[.[.[.[.[.[.[.[.[.[.[.h x L Y.].].].].].].].].].].].].].].].].].].].].].].].].].B.z l ] e.-.;.:.;.;.;.y.j.%.%     [.[.[.[.[.",
"[.[.[.[.[.[.[.[.[.[.[.    c.U.T._.].].].].].].].].].].].].].].].].].].].].].].].].]./.P.P.~ r u X.<.;.:.:.t.g.$.%     [.[.[.[.[.",
"[.[.[.[.[.[.[.[.[.[.[.    n.].].].].].].].].].].].].].].].].].].].].].].].].].].].].].].].W   #  .4.<.:.:.t.g.$.%     [.[.[.[.[.",
"[.[.[.[.[.[.[.[.[.[.[.    b.].].].].].].].].].].].].].].].].].].].].].].].].].].].].].].'.E   $ #.f.t.;.;.y.j.%.%     [.[.[.[.[.",
"[.[.[.[.[.[.[.[.[.[.[.v v N.].].].].].].].].].].].].].].].].].].].].].].].].].].].].].].'._ c G +.w.6.3.3.6.w.o.&     [.[.[.[.[.",
"[.[.[.[.[.[.[.[.    E P.P./.].].].].].].].].].].].].].].].].].].].].].].].].].].].].].].'.Q.P.Z.B t D a.a.D t t [.[.[.[.[.[.[.[.",
"[.[.[.[.[.[.[.[.    Q ].].].]._.R.P.Q.'.].].].].].]./.U.U./.].].].].].].].].].].].].].].].].].K.<   m q.q.N     [.[.[.[.[.[.[.[.",
"[.[.[.[.[.[.[.[.    Q '.].].].U.L j ( '.].].].].].].N.c c N.].].].].].].].].].].].].].].].].].J.,   O y y [.[.[.[.[.[.[.[.[.[.[.",
"[.[.[.[.[.[.[.[.    Q '.].].].U.L j ( '.].].].].].].N.x x N.].].].].].].].].].].].].].].].].].J.,         [.[.[.[.[.[.[.[.[.[.[.",
"[.[.[.[.[.[.[.[.    Q '.].].]._.R.P.Q.'.].].].].].]./.U.U./.].].].].].].].].].].].].].].].].].K.,     [.[.[.[.[.[.[.[.[.[.[.[.[.",
"[.[.[.[.[.[.[.[.    Q '.].].].].].].].].].].].].].].].].].].].].].].].].].].].].].].].].'.!.U.D.1     [.[.[.[.[.[.[.[.[.[.[.[.[.",
"[.[.[.[.[.[.[.[.    Q '.].].].].].].].].].].].].].].].].].].].].].].].].].].].].].].].].'.` b v [.[.[.[.[.[.[.[.[.[.[.[.[.[.[.[.",
"[.[.[.[.[.[.[.[.    Q '.].].]._.R.P.Q.'.].].].].].]./.U.U./.].].].].].].].].].].].].].].'.E     [.[.[.[.[.[.[.[.[.[.[.[.[.[.[.[.",
"[.[.[.[.[.[.[.[.    Q ].].].].U.P x _ ].].].].].].].V.c c N.].].].].].].].].].].].].].].].Q     [.[.[.[.[.[.[.[.[.[.[.[.[.[.[.[.",
"[.[.[.[.[.[.[.[.    E P.U./.].U.P x ^ P.U./.]._.R.U.b.c c N.].].].].].].].].].].].]./.U.P.E     [.[.[.[.[.[.[.[.[.[.[.[.[.[.[.[.",
"[.[.[.[.[.[.[.[.[.[.[.b b V.].`.R.U.b.c c V.].Y.P x ^ P.U./.].].].].].].].].].].].].V.b b [.[.[.[.[.[.[.[.[.[.[.[.[.[.[.[.[.[.[.",
"[.[.[.[.[.[.[.[.[.[.[.    c.U.R.`.].V.c c b.U.F.J x _ ].].].].].].].].].].].].].].].b.    [.[.[.[.[.[.[.[.[.[.[.[.[.[.[.[.[.[.[.",
"[.[.[.[.[.[.[.[.[.[.[.[.[.x b U Y.].(.Y.Y.^ x J F.U.Q.'.].].].].].].].].].].].].].].n.    [.[.[.[.[.[.[.[.[.[.[.[.[.[.[.[.[.[.[.",
"[.[.[.[.[.[.[.[.[.[.[.[.[.    = C.U.U.Y.Y.^ x P Y.].].].].].].].].].].].'.Q.P.U.U.Y.k.    [.[.[.[.[.[.[.[.[.[.[.[.[.[.[.[.[.[.[.",
"[.[.[.[.[.[.[.[.[.[.[.[.[.    o a c c b b m.T.E.`.].].].].].].].].].].].].` v b b b ,           [.[.[.[.[.[.[.[.[.[.[.[.[.[.[.[.",
"[.[.[.[.[.[.[.[.[.[.[.[.[.    o s c :     l.T.Y.U.U.U.U.U.U.U.U.U.U.U.U.P.Y               , b v [.[.[.[.[.[.[.[.[.[.[.[.[.[.[.[.",
"[.[.[.[.[.[.[.[.[.[.[.[.[.    = C.Y.k.    ; c x v b v x x x x x x x x x x @               k.Y.D.1     [.[.[.[.[.[.[.[.[.[.[.[.[.",
"[.[.[.[.[.[.[.[.[.[.[.[.[.x b U Y.].V.b b c c a X   + x x x x x x x x x x @   o d b b b b V.].K.,     [.[.[.[.[.[.[.[.[.[.[.[.[.",
"[.[.[.[.[.[.[.[.[.[.[.    c.U.R._.]./.U.U.Y.T.A.-   Y P.U.U.U.U.U.U.U.U.P.Y   - A.T.Y.U.U./.].H.:     [.[.[.[.[.[.[.[.[.[.[.[.[.",
"[.[.[.[.[.[.[.[.[.[.[.    n.].].].].].].].~.Y.G.K c ` ].].].].].].].].].].` c K G.Y.~.].].].].U.I v j [.[.[.[.[.[.[.[.[.[.[.[.[.",
"[.[.[.[.[.[.[.[.[.[.[.    b.].].].].].].'._ c K F.U.Q.'.].].].].].].].].'.Q.U.F.K c _ '.].].]._.T.U.c.    [.[.[.[.[.[.[.[.[.[.[.",
"[.[.[.[.[.[.[.[.[.[.[.v v N.].].].].].].'.E   > K.].].].].].].].].].].].].].].K.>   E '.].].].].].].n.    [.[.[.[.[.[.[.[.[.[.[.",
"[.[.[.[.[.[.[.[.    E P.U./.].].].].].].'.E   : H.].].].].].].].].].].].].].].H.:   E '.].].].].].].b.    [.[.[.[.[.[.[.[.[.[.[.",
"[.[.[.[.[.[.[.[.    Q ].].].].].].].].].'._ x P U.].].].].].].].].].].].].].].U.P x _ '.].].].].].].N.v c [.[.[.[.[.[.[.[.[.[.[.",
"[.[.[.[.[.[.[.[.    Q '.].].].].].].].].'.Q.P.T._.].].].].].].].].].].].].].]._.T.P.Q.'.].].].].].]./.P.P.R     [.[.[.[.[.[.[.[.",
"[.[.[.[.[.[.[.[.    Q '.].].].].].].].].].].].].].].].].].].].].].].].].].].].].].].].].].].].].].].].].].Q     [.[.[.[.[.[.[.[.",
"[.[.[.[.[.[.[.[.    Q '.].].].].].].].].].].].].].].].].].].].].].].].].].].].].].].].].].].].].].].].].'.E     [.[.[.[.[.[.[.[.",
"[.[.[.[.[.[.[.[.    Q '.].].].].].].].].].].].].].].].].].].].].].].].].].].].].].].].].].].].].].].].].'.( j j [.[.[.[.[.[.[.[.",
"[.[.[.[.[.[.[.[.    Q '.].].].].].].].].].].].].].].].].].].].].].].].].].].].].].].].].].].].].].].].].'.Q.P.S.1     [.[.[.[.[.",
"[.[.[.[.[.[.[.[.    Q '.].].].].].].].].].].].].].].].].].].].].].].].].].].].].].].].].].].].].].].].].].].].K.,     [.[.[.[.[.",
"[.[.[.[.[.[.[.[.    Q '.].].].].].].].].].].].].].].].].].].].].].].].].].].].].].].].].].].].].].].].].].].].J.,     [.[.[.[.[.",
"[.[.[.[.[.[.[.[.    Q '.].].].].].].].].].].].].].].].].].].].].].].].].].].].).Y.L.Q.'.].].].].].].].].].].].J.,     [.[.[.[.[.",
"[.[.[.[.[.[.[.[.    Q ].].].].].].].].].].].].].].].].].].].].].].].].].].].].U.H a / ].].].].].].].].].].].].K.,     [.[.[.[.[.",
"[.[.[.[.[.[.[.[.    E L.L.L.L.Y.).].].].'.W.L.L.L.L.W.'.].].].].].].].].'.W.L.A.:   T L.L.^.].].].].].].'.W.L.A.1     [.[.[.[.[.",
"[.[.[.[.[.[.[.[.[.[.[.s s s a n U.].].].]./ a s s a / ].].].].].].].].].]./ a a [.[.[.s s M.].].].].].].]./ a a [.[.[.[.[.[.[.[.",
"[.[.[.[.[.[.[.[.[.[.[.        : A.L.L.L.L.T         T L.L.L.L.L.L.L.L.L.L.T     [.[.[.    z.L.L.L.L.L.L.L.T     [.[.[.[.[.[.[.[.",
"[.[.[.[.[.[.[.[.[.[.[.[.[.[.[.[.p a a a a [.[.[.[.[.[.a a a a a a a a a a [.[.[.[.[.[.[.[.i a a a a a a a [.[.[.[.[.[.[.[.[.[.[.",
"[.[.[.[.[.[.[.[.[.[.[.[.[.[.[.[.          [.[.[.[.[.[.                    [.[.[.[.[.[.[.[.                [.[.[.[.[.[.[.[.[.[.[.",
"[.[.[.[.[.[.[.[.[.[.[.[.[.[.[.[.[.[.[.[.[.[.[.[.[.[.[.[.[.[.[.[.[.[.[.[.[.[.[.[.[.[.[.[.[.[.[.[.[.[.[.[.[.[.[.[.[.[.[.[.[.[.[.[.",
"[.[.[.[.[.[.[.[.[.[.[.[.[.[.[.[.[.[.[.[.[.[.[.[.[.[.[.[.[.[.[.[.[.[.[.[.[.[.[.[.[.[.[.[.[.[.[.[.[.[.[.[.[.[.[.[.[.[.[.[.[.[.[.[.",
"[.[.[.[.[.[.[.[.[.[.[.[.[.[.[.[.[.[.[.[.[.[.[.[.[.[.[.[.[.[.[.[.[.[.[.[.[.[.[.[.[.[.[.[.[.[.[.[.[.[.[.[.[.[.[.[.[.[.[.[.[.[.[.[.",
"[.[.[.[.[.[.[.[.[.[.[.[.[.[.[.[.[.[.[.[.[.[.[.[.[.[.[.[.[.[.[.[.[.[.[.[.[.[.[.[.[.[.[.[.[.[.[.[.[.[.[.[.[.[.[.[.[.[.[.[.[.[.[.[."
};
